<svg xmlns="http://www.w3.org/2000/svg" version="1.1" xmlns:xlink="http://www.w3.org/1999/xlink" xmlns:svgjs="http://svgjs.dev/svgjs" width="1500" height="1500" viewBox="0 0 1500 1500"><rect width="1500" height="1500" fill="#000000"></rect><g transform="matrix(0.6666666666666666,0,0,0.6666666666666666,249.39393939393938,651.7627551564649)"><svg viewBox="0 0 396 77" data-background-color="#000000" preserveAspectRatio="xMidYMid meet" height="291" width="1500" xmlns="http://www.w3.org/2000/svg" xmlns:xlink="http://www.w3.org/1999/xlink"><g id="tight-bounds" transform="matrix(1,0,0,1,0.2400000000000091,0.4910714069701214)"><svg viewBox="0 0 395.52 76.01785718605974" height="76.01785718605974" width="395.52"><g><svg viewBox="0 0 557.1652957905826 107.08563886639675" height="76.01785718605974" width="395.52"><g></g><g transform="matrix(1,0,0,1,161.64529579058268,0.26638218623481436)"><svg viewBox="0 0 395.52 106.55287449392712" height="106.55287449392712" width="395.52"><g id="textblocktransform"><svg viewBox="0 0 395.52 106.55287449392712" height="106.55287449392712" width="395.52" id="textblock"><g><svg viewBox="0 0 395.52 106.55287449392712" height="106.55287449392712" width="395.52"><g transform="matrix(1,0,0,1,0,0)"><svg width="395.52" viewBox="1.95 -28.98 144.72 38.99" height="106.55287449392712" data-palette-color="url(#b58ae181-8ffc-4f92-b6ab-46a07e5ef67a)"></svg></g></svg></g></svg></g></svg></g><g transform="matrix(1,0,0,1,0,0.26638218623481436)"><svg viewBox="0 0 101.72709480809716 106.55287449392712" height="106.55287449392712" width="101.72709480809716"><g><svg version="1.0" xmlns="http://www.w3.org/2000/svg" xmlns:xlink="http://www.w3.org/1999/xlink" x="0" y="0" viewBox="0 0 95.471 100" enable-background="new 0 0 95.471 100" xml:space="preserve" id="icon-0" width="101.72709480809716" height="106.55287449392712" class="icon-icon-0" data-fill-palette-color="accent"></svg></g></svg></g></svg></g><defs></defs><mask id="fdd4a830-d57e-4b78-8068-a5ae75f9298b"><g id="SvgjsG1099"><svg viewBox="0 0 395.52 76.01785718605974" height="76.01785718605974" width="395.52"><g><svg viewBox="0 0 557.1652957905826 107.08563886639675" height="76.01785718605974" width="395.52"><g><rect width="9.609048184428826" height="107.08563886639675" x="126.8816712071255" y="0" fill="white" opacity="1" stroke-width="0" stroke="transparent" fill-opacity="1" class="rect-yte-0" rx="1%" id="SvgjsRect1098" data-palette-color="url(#b58ae181-8ffc-4f92-b6ab-46a07e5ef67a)"></rect></g><g transform="matrix(1,0,0,1,161.64529579058268,0.26638218623481436)"><svg viewBox="0 0 395.52 106.55287449392712" height="106.55287449392712" width="395.52"><g id="SvgjsG1097"><svg viewBox="0 0 395.52 106.55287449392712" height="106.55287449392712" width="395.52" id="SvgjsSvg1096"><g><svg viewBox="0 0 395.52 106.55287449392712" height="106.55287449392712" width="395.52"><g transform="matrix(1,0,0,1,0,0)"><svg width="395.52" viewBox="1.95 -28.98 144.72 38.99" height="106.55287449392712" data-palette-color="url(#b58ae181-8ffc-4f92-b6ab-46a07e5ef67a)"><path d="M15.72-28.98Q18.58-28.98 20.58-28 22.58-27.03 23.6-25.26 24.61-23.49 24.61-21.12L24.61-21.12Q24.61-19.26 23.77-17.83 22.92-16.41 21.36-15.5L21.36-15.5Q23.95-14.67 25.33-12.83 26.71-10.99 26.71-8.28L26.71-8.28Q26.71-5.71 25.61-3.86 24.51-2 22.41-1 20.31 0 17.33 0L17.33 0 3.49 0Q2.66 0 2.31-0.38 1.95-0.76 1.95-1.66L1.95-1.66Q1.95-2.56 2.31-2.94 2.66-3.32 3.49-3.32L3.49-3.32 6.47-3.32 6.47-25.66 3.49-25.66Q2.66-25.66 2.31-26.04 1.95-26.42 1.95-27.32L1.95-27.32Q1.95-28.22 2.31-28.6 2.66-28.98 3.49-28.98L3.49-28.98 15.72-28.98ZM10.13-25.66L10.13-16.63 15.19-16.63Q17.99-16.63 19.43-17.8 20.87-18.97 20.87-21.12L20.87-21.12Q20.87-23.36 19.46-24.51 18.04-25.66 15.19-25.66L15.19-25.66 10.13-25.66ZM10.13-13.31L10.13-3.32 16.6-3.32Q19.6-3.32 21.23-4.61 22.85-5.91 22.85-8.28L22.85-8.28Q22.85-13.31 16.72-13.31L16.72-13.31 10.13-13.31ZM45.07-23.1Q49.66-23.1 51.95-21.04 54.25-18.99 54.25-14.97L54.25-14.97 54.25-5.25Q54.25-3.32 55.86-3.32L55.86-3.32 56.71-3.32Q57.54-3.32 57.9-2.94 58.25-2.56 58.25-1.66L58.25-1.66Q58.25-0.76 57.9-0.38 57.54 0 56.71 0L56.71 0 55.15 0Q53.56 0 52.43-0.79 51.29-1.59 50.95-3.13L50.95-3.13Q48.95-1.37 46.62-0.42 44.28 0.54 41.67 0.54L41.67 0.54Q39.21 0.54 37.31-0.31 35.42-1.15 34.35-2.76 33.27-4.37 33.27-6.59L33.27-6.59Q33.27-10.45 36.03-12.29 38.79-14.14 43.16-14.14L43.16-14.14Q47.04-14.14 50.58-12.89L50.58-12.89 50.58-14.97Q50.58-17.33 49.25-18.44 47.92-19.56 44.97-19.56L44.97-19.56Q43.14-19.56 41.16-19.04 39.18-18.53 37.4-17.63L37.4-17.63Q36.98-17.41 36.64-17.41L36.64-17.41Q35.84-17.41 35.3-18.58L35.3-18.58Q35.03-19.17 35.03-19.56L35.03-19.56Q35.03-20.41 35.94-20.87L35.94-20.87Q37.99-21.95 40.34-22.52 42.7-23.1 45.07-23.1L45.07-23.1ZM43.19-10.69Q40.38-10.69 38.75-9.73 37.13-8.76 37.13-6.67L37.13-6.67Q37.13-4.88 38.36-3.89 39.6-2.91 41.82-2.91L41.82-2.91Q46.68-2.91 50.58-6.93L50.58-6.93 50.58-9.59Q48.92-10.13 47.02-10.41 45.11-10.69 43.19-10.69L43.19-10.69ZM77.7-23.1Q79.93-23.1 81.56-22.13 83.2-21.17 84.08-19.36 84.96-17.55 84.96-15.14L84.96-15.14 84.96-3.32 86.96-3.32Q87.79-3.32 88.14-2.94 88.5-2.56 88.5-1.66L88.5-1.66Q88.5-0.76 88.14-0.38 87.79 0 86.96 0L86.96 0 79.05 0Q78.22 0 77.86-0.38 77.51-0.76 77.51-1.66L77.51-1.66Q77.51-2.56 77.86-2.94 78.22-3.32 79.05-3.32L79.05-3.32 81.29-3.32 81.29-14.77Q81.29-16.94 80.29-18.21 79.29-19.48 77.34-19.48L77.34-19.48Q75.26-19.48 73.47-18.29 71.67-17.09 70.6-14.99 69.53-12.89 69.53-10.3L69.53-10.3 69.53-3.32 71.77-3.32Q72.6-3.32 72.96-2.94 73.31-2.56 73.31-1.66L73.31-1.66Q73.31-0.76 72.96-0.38 72.6 0 71.77 0L71.77 0 63.86 0Q63.03 0 62.68-0.38 62.32-0.76 62.32-1.66L62.32-1.66Q62.32-2.56 62.68-2.94 63.03-3.32 63.86-3.32L63.86-3.32 65.86-3.32 65.86-19.24 63.37-19.24Q62.54-19.24 62.19-19.62 61.84-20 61.84-20.9L61.84-20.9Q61.84-21.8 62.19-22.18 62.54-22.56 63.37-22.56L63.37-22.56 67.74-22.56Q68.57-22.56 68.93-22.18 69.28-21.8 69.28-20.9L69.28-20.9 69.28-17.97Q70.89-20.46 73.05-21.78 75.21-23.1 77.7-23.1L77.7-23.1ZM103.58-23.1Q105.97-23.1 108-22.02 110.03-20.95 111.56-18.95L111.56-18.95 111.56-20.9Q111.56-21.8 111.92-22.18 112.27-22.56 113.1-22.56L113.1-22.56 116.98-22.56Q117.81-22.56 118.17-22.18 118.52-21.8 118.52-20.9L118.52-20.9Q118.52-20 118.17-19.62 117.81-19.24 116.98-19.24L116.98-19.24 114.98-19.24 114.98 0.73Q114.98 3.64 113.75 5.73 112.52 7.81 110.17 8.91 107.83 10.01 104.53 10.01L104.53 10.01Q102.19 10.01 99.8 9.61 97.4 9.2 95.33 8.45L95.33 8.45Q94.38 8.11 94.38 7.15L94.38 7.15Q94.38 6.76 94.57 6.18L94.57 6.18Q95.01 4.83 95.96 4.83L95.96 4.83Q96.23 4.83 96.5 4.93L96.5 4.93Q98.41 5.62 100.51 6.01 102.6 6.4 104.53 6.4L104.53 6.4Q107.9 6.4 109.61 4.8 111.32 3.2 111.32 0.42L111.32 0.42 111.32-4.49Q108.29-0.68 103.58-0.68L103.58-0.68Q100.55-0.68 98.16-2.04 95.77-3.39 94.4-5.93 93.03-8.47 93.03-11.89L93.03-11.89Q93.03-15.31 94.4-17.85 95.77-20.39 98.16-21.74 100.55-23.1 103.58-23.1L103.58-23.1ZM103.83-19.48Q101.65-19.48 100.09-18.52 98.53-17.55 97.71-15.83 96.89-14.11 96.89-11.89L96.89-11.89Q96.89-9.67 97.71-7.95 98.53-6.23 100.09-5.26 101.65-4.3 103.83-4.3L103.83-4.3Q106-4.3 107.7-5.2 109.39-6.1 110.36-7.82 111.32-9.55 111.32-11.89L111.32-11.89Q111.32-14.23 110.36-15.95 109.39-17.68 107.7-18.58 106-19.48 103.83-19.48L103.83-19.48ZM134.9-23.1Q138.25-23.1 140.93-21.58 143.62-20.07 145.14-17.37 146.67-14.67 146.67-11.28L146.67-11.28Q146.67-7.89 145.14-5.19 143.62-2.49 140.93-0.98 138.25 0.54 134.9 0.54L134.9 0.54Q131.56 0.54 128.87-0.98 126.19-2.49 124.66-5.19 123.13-7.89 123.13-11.28L123.13-11.28Q123.13-14.67 124.66-17.37 126.19-20.07 128.87-21.58 131.56-23.1 134.9-23.1L134.9-23.1ZM134.9-19.48Q132.53-19.48 130.74-18.44 128.95-17.41 127.97-15.54 126.99-13.67 126.99-11.28L126.99-11.28Q126.99-8.89 127.97-7.02 128.95-5.15 130.74-4.11 132.53-3.08 134.9-3.08L134.9-3.08Q137.27-3.08 139.06-4.11 140.86-5.15 141.84-7.02 142.81-8.89 142.81-11.28L142.81-11.28Q142.81-13.67 141.84-15.54 140.86-17.41 139.06-18.44 137.27-19.48 134.9-19.48L134.9-19.48Z" opacity="1" transform="matrix(1,0,0,1,0,0)" fill="white" class="wordmark-text-0" id="SvgjsPath1095"></path></svg></g></svg></g></svg></g></svg></g><g transform="matrix(1,0,0,1,0,0.26638218623481436)"><svg viewBox="0 0 101.72709480809716 106.55287449392712" height="106.55287449392712" width="101.72709480809716"><g><svg version="1.0" xmlns="http://www.w3.org/2000/svg" xmlns:xlink="http://www.w3.org/1999/xlink" x="0" y="0" viewBox="0 0 95.471 100" enable-background="new 0 0 95.471 100" xml:space="preserve" id="SvgjsSvg1094" width="101.72709480809716" height="106.55287449392712" class="icon-icon-0" data-fill-palette-color="accent"><path d="M47.735 0C47.652 2.825 45.997 13.412 27.936 30.934 10.554 47.797 2.439 49.824 0 50 2.439 50.178 10.554 52.204 27.936 69.066 45.997 86.589 47.652 97.177 47.735 100 47.818 97.177 49.474 86.589 67.533 69.066 84.917 52.204 93.031 50.178 95.471 50 93.032 49.824 84.917 47.797 67.533 30.934 49.475 13.412 47.819 2.825 47.735 0" fill="black"></path></svg></g></svg></g></svg></g><defs><mask></mask></defs></svg><rect width="395.52" height="76.01785718605974" fill="black" stroke="none" visibility="hidden"></rect></g></mask><linearGradient x1="0" x2="1" y1="0.548" y2="0.55" id="b58ae181-8ffc-4f92-b6ab-46a07e5ef67a"><stop stop-color="#ff6cab" offset="0"></stop><stop stop-color="#7366ff" offset="1"></stop></linearGradient><rect width="395.52" height="76.01785718605974" fill="#ffffff" mask="url(#fdd4a830-d57e-4b78-8068-a5ae75f9298b)" data-fill-palette-color="primary"></rect><mask id="892d3f14-b53e-4686-9c34-875cc8461cdb"><g id="SvgjsG1120"><svg viewBox="0 0 395.52 76.01785718605974" height="76.01785718605974" width="395.52"><g><svg viewBox="0 0 557.1652957905826 107.08563886639675" height="76.01785718605974" width="395.52"><g></g><g transform="matrix(1,0,0,1,161.64529579058268,0.26638218623481436)"><svg viewBox="0 0 395.52 106.55287449392712" height="106.55287449392712" width="395.52"><g id="SvgjsG1119"><svg viewBox="0 0 395.52 106.55287449392712" height="106.55287449392712" width="395.52" id="SvgjsSvg1118"><g><svg viewBox="0 0 395.52 106.55287449392712" height="106.55287449392712" width="395.52"><g transform="matrix(1,0,0,1,0,0)"><svg width="395.52" viewBox="1.95 -28.98 144.72 38.99" height="106.55287449392712" data-palette-color="url(#b58ae181-8ffc-4f92-b6ab-46a07e5ef67a)"></svg></g></svg></g></svg></g></svg></g><g transform="matrix(1,0,0,1,0,0.26638218623481436)"><svg viewBox="0 0 101.72709480809716 106.55287449392712" height="106.55287449392712" width="101.72709480809716"><g><svg version="1.0" xmlns="http://www.w3.org/2000/svg" xmlns:xlink="http://www.w3.org/1999/xlink" x="0" y="0" viewBox="0 0 95.471 100" enable-background="new 0 0 95.471 100" xml:space="preserve" id="SvgjsSvg1117" width="101.72709480809716" height="106.55287449392712" class="icon-icon-0" data-fill-palette-color="accent"><path d="M47.735 0C47.652 2.825 45.997 13.412 27.936 30.934 10.554 47.797 2.439 49.824 0 50 2.439 50.178 10.554 52.204 27.936 69.066 45.997 86.589 47.652 97.177 47.735 100 47.818 97.177 49.474 86.589 67.533 69.066 84.917 52.204 93.031 50.178 95.471 50 93.032 49.824 84.917 47.797 67.533 30.934 49.475 13.412 47.819 2.825 47.735 0" fill="white"></path></svg></g></svg></g></svg></g><defs><mask></mask></defs><mask><g id="SvgjsG1116"><svg viewBox="0 0 395.52 76.01785718605974" height="76.01785718605974" width="395.52"><g><svg viewBox="0 0 557.1652957905826 107.08563886639675" height="76.01785718605974" width="395.52"><g><rect width="9.609048184428826" height="107.08563886639675" x="126.8816712071255" y="0" fill="black" opacity="1" stroke-width="0" stroke="transparent" fill-opacity="1" class="rect-yte-0" rx="1%" id="SvgjsRect1115" data-palette-color="url(#b58ae181-8ffc-4f92-b6ab-46a07e5ef67a)"></rect></g><g transform="matrix(1,0,0,1,161.64529579058268,0.26638218623481436)"><svg viewBox="0 0 395.52 106.55287449392712" height="106.55287449392712" width="395.52"><g id="SvgjsG1114"><svg viewBox="0 0 395.52 106.55287449392712" height="106.55287449392712" width="395.52" id="SvgjsSvg1113"><g><svg viewBox="0 0 395.52 106.55287449392712" height="106.55287449392712" width="395.52"><g transform="matrix(1,0,0,1,0,0)"><svg width="395.52" viewBox="1.95 -28.98 144.72 38.99" height="106.55287449392712" data-palette-color="url(#b58ae181-8ffc-4f92-b6ab-46a07e5ef67a)"><path d="M15.72-28.98Q18.58-28.98 20.58-28 22.58-27.03 23.6-25.26 24.61-23.49 24.61-21.12L24.61-21.12Q24.61-19.26 23.77-17.83 22.92-16.41 21.36-15.5L21.36-15.5Q23.95-14.67 25.33-12.83 26.71-10.99 26.71-8.28L26.71-8.28Q26.71-5.71 25.61-3.86 24.51-2 22.41-1 20.31 0 17.33 0L17.33 0 3.49 0Q2.66 0 2.31-0.38 1.95-0.76 1.95-1.66L1.95-1.66Q1.95-2.56 2.31-2.94 2.66-3.32 3.49-3.32L3.49-3.32 6.47-3.32 6.47-25.66 3.49-25.66Q2.66-25.66 2.31-26.04 1.95-26.42 1.95-27.32L1.95-27.32Q1.95-28.22 2.31-28.6 2.66-28.98 3.49-28.98L3.49-28.98 15.72-28.98ZM10.13-25.66L10.13-16.63 15.19-16.63Q17.99-16.63 19.43-17.8 20.87-18.97 20.87-21.12L20.87-21.12Q20.87-23.36 19.46-24.51 18.04-25.66 15.19-25.66L15.19-25.66 10.13-25.66ZM10.13-13.31L10.13-3.32 16.6-3.32Q19.6-3.32 21.23-4.61 22.85-5.91 22.85-8.28L22.85-8.28Q22.85-13.31 16.72-13.31L16.72-13.31 10.13-13.31ZM45.07-23.1Q49.66-23.1 51.95-21.04 54.25-18.99 54.25-14.97L54.25-14.97 54.25-5.25Q54.25-3.32 55.86-3.32L55.86-3.32 56.71-3.32Q57.54-3.32 57.9-2.94 58.25-2.56 58.25-1.66L58.25-1.66Q58.25-0.76 57.9-0.38 57.54 0 56.71 0L56.71 0 55.15 0Q53.56 0 52.43-0.79 51.29-1.59 50.95-3.13L50.95-3.13Q48.95-1.37 46.62-0.42 44.28 0.54 41.67 0.54L41.67 0.54Q39.21 0.54 37.31-0.31 35.42-1.15 34.35-2.76 33.27-4.37 33.27-6.59L33.27-6.59Q33.27-10.45 36.03-12.29 38.79-14.14 43.16-14.14L43.16-14.14Q47.04-14.14 50.58-12.89L50.58-12.89 50.58-14.97Q50.58-17.33 49.25-18.44 47.92-19.56 44.97-19.56L44.97-19.56Q43.14-19.56 41.16-19.04 39.18-18.53 37.4-17.63L37.4-17.63Q36.98-17.41 36.64-17.41L36.64-17.41Q35.84-17.41 35.3-18.58L35.3-18.58Q35.03-19.17 35.03-19.56L35.03-19.56Q35.03-20.41 35.94-20.87L35.94-20.87Q37.99-21.95 40.34-22.52 42.7-23.1 45.07-23.1L45.07-23.1ZM43.19-10.69Q40.38-10.69 38.75-9.73 37.13-8.76 37.13-6.67L37.13-6.67Q37.13-4.88 38.36-3.89 39.6-2.91 41.82-2.91L41.82-2.91Q46.68-2.91 50.58-6.93L50.58-6.93 50.58-9.59Q48.92-10.13 47.02-10.41 45.11-10.69 43.19-10.69L43.19-10.69ZM77.7-23.1Q79.93-23.1 81.56-22.13 83.2-21.17 84.08-19.36 84.96-17.55 84.96-15.14L84.96-15.14 84.96-3.32 86.96-3.32Q87.79-3.32 88.14-2.94 88.5-2.56 88.5-1.66L88.5-1.66Q88.5-0.76 88.14-0.38 87.79 0 86.96 0L86.96 0 79.05 0Q78.22 0 77.86-0.38 77.51-0.76 77.51-1.66L77.51-1.66Q77.51-2.56 77.86-2.94 78.22-3.32 79.05-3.32L79.05-3.32 81.29-3.32 81.29-14.77Q81.29-16.94 80.29-18.21 79.29-19.48 77.34-19.48L77.34-19.48Q75.26-19.48 73.47-18.29 71.67-17.09 70.6-14.99 69.53-12.89 69.53-10.3L69.53-10.3 69.53-3.32 71.77-3.32Q72.6-3.32 72.96-2.94 73.31-2.56 73.31-1.66L73.31-1.66Q73.31-0.76 72.96-0.38 72.6 0 71.77 0L71.77 0 63.86 0Q63.03 0 62.68-0.38 62.32-0.76 62.32-1.66L62.32-1.66Q62.32-2.56 62.68-2.94 63.03-3.32 63.86-3.32L63.86-3.32 65.86-3.32 65.86-19.24 63.37-19.24Q62.54-19.24 62.19-19.62 61.84-20 61.84-20.9L61.84-20.9Q61.84-21.8 62.19-22.18 62.54-22.56 63.37-22.56L63.37-22.56 67.74-22.56Q68.57-22.56 68.93-22.18 69.28-21.8 69.28-20.9L69.28-20.9 69.28-17.97Q70.89-20.46 73.05-21.78 75.21-23.1 77.7-23.1L77.7-23.1ZM103.58-23.1Q105.97-23.1 108-22.02 110.03-20.95 111.56-18.95L111.56-18.95 111.56-20.9Q111.56-21.8 111.92-22.18 112.27-22.56 113.1-22.56L113.1-22.56 116.98-22.56Q117.81-22.56 118.17-22.18 118.52-21.8 118.52-20.9L118.52-20.9Q118.52-20 118.17-19.62 117.81-19.24 116.98-19.24L116.98-19.24 114.98-19.24 114.98 0.73Q114.98 3.64 113.75 5.73 112.52 7.81 110.17 8.91 107.83 10.01 104.53 10.01L104.53 10.01Q102.19 10.01 99.8 9.61 97.4 9.2 95.33 8.45L95.33 8.45Q94.38 8.11 94.38 7.15L94.38 7.15Q94.38 6.76 94.57 6.18L94.57 6.18Q95.01 4.83 95.96 4.83L95.96 4.83Q96.23 4.83 96.5 4.93L96.5 4.93Q98.41 5.62 100.51 6.01 102.6 6.4 104.53 6.4L104.53 6.4Q107.9 6.4 109.61 4.8 111.32 3.2 111.32 0.42L111.32 0.42 111.32-4.49Q108.29-0.68 103.58-0.68L103.58-0.68Q100.55-0.68 98.16-2.04 95.77-3.39 94.4-5.93 93.03-8.47 93.03-11.89L93.03-11.89Q93.03-15.31 94.4-17.85 95.77-20.39 98.16-21.74 100.55-23.1 103.58-23.1L103.58-23.1ZM103.83-19.48Q101.65-19.48 100.09-18.52 98.53-17.55 97.71-15.83 96.89-14.11 96.89-11.89L96.89-11.89Q96.89-9.67 97.71-7.95 98.53-6.23 100.09-5.26 101.65-4.3 103.83-4.3L103.83-4.3Q106-4.3 107.7-5.2 109.39-6.1 110.36-7.82 111.32-9.55 111.32-11.89L111.32-11.89Q111.32-14.23 110.36-15.95 109.39-17.68 107.7-18.58 106-19.48 103.83-19.48L103.83-19.48ZM134.9-23.1Q138.25-23.1 140.93-21.58 143.62-20.07 145.14-17.37 146.67-14.67 146.67-11.28L146.67-11.28Q146.67-7.89 145.14-5.19 143.62-2.49 140.93-0.98 138.25 0.54 134.9 0.54L134.9 0.54Q131.56 0.54 128.87-0.98 126.19-2.49 124.66-5.19 123.13-7.89 123.13-11.28L123.13-11.28Q123.13-14.67 124.66-17.37 126.19-20.07 128.87-21.58 131.56-23.1 134.9-23.1L134.9-23.1ZM134.9-19.48Q132.53-19.48 130.74-18.44 128.95-17.41 127.97-15.54 126.99-13.67 126.99-11.28L126.99-11.28Q126.99-8.89 127.97-7.02 128.95-5.15 130.74-4.11 132.53-3.08 134.9-3.08L134.9-3.08Q137.27-3.08 139.06-4.11 140.86-5.15 141.84-7.02 142.81-8.89 142.81-11.28L142.81-11.28Q142.81-13.67 141.84-15.54 140.86-17.41 139.06-18.44 137.27-19.48 134.9-19.48L134.9-19.48Z" opacity="1" transform="matrix(1,0,0,1,0,0)" fill="black" class="wordmark-text-0" id="SvgjsPath1112"></path></svg></g></svg></g></svg></g></svg></g><g transform="matrix(1,0,0,1,0,0.26638218623481436)"><svg viewBox="0 0 101.72709480809716 106.55287449392712" height="106.55287449392712" width="101.72709480809716"><g><svg version="1.0" xmlns="http://www.w3.org/2000/svg" xmlns:xlink="http://www.w3.org/1999/xlink" x="0" y="0" viewBox="0 0 95.471 100" enable-background="new 0 0 95.471 100" xml:space="preserve" id="SvgjsSvg1111" width="101.72709480809716" height="106.55287449392712" class="icon-icon-0" data-fill-palette-color="accent"><path d="M47.735 0C47.652 2.825 45.997 13.412 27.936 30.934 10.554 47.797 2.439 49.824 0 50 2.439 50.178 10.554 52.204 27.936 69.066 45.997 86.589 47.652 97.177 47.735 100 47.818 97.177 49.474 86.589 67.533 69.066 84.917 52.204 93.031 50.178 95.471 50 93.032 49.824 84.917 47.797 67.533 30.934 49.475 13.412 47.819 2.825 47.735 0" fill="black"></path></svg></g></svg></g></svg></g><defs><mask></mask></defs></svg><rect width="395.52" height="76.01785718605974" fill="black" stroke="none" visibility="hidden"></rect></g></mask></svg><rect width="395.52" height="76.01785718605974" fill="black" stroke="none" visibility="hidden"></rect></g></mask><linearGradient x1="0" x2="1" y1="0.548" y2="0.55" id="f2a17d8a-eda7-4caf-a4e3-e34ed2f08420"><stop stop-color="#ff6cab" offset="0"></stop><stop stop-color="#7366ff" offset="1"></stop></linearGradient><rect width="395.52" height="76.01785718605974" fill="#ffffff" mask="url(#892d3f14-b53e-4686-9c34-875cc8461cdb)" data-fill-palette-color="accent"></rect></svg><rect width="395.52" height="76.01785718605974" fill="none" stroke="none" visibility="hidden"></rect></g></svg></g></svg>